<mxfile host="65bd71144e">
    <diagram name="Page-1" id="9f46799a-70d6-7492-0946-bef42562c5a5">
        <mxGraphModel dx="1144" dy="510" grid="1" gridSize="10" guides="1" tooltips="1" connect="1" arrows="1" fold="1" page="1" pageScale="1" pageWidth="1100" pageHeight="850" background="none" math="0" shadow="0">
            <root>
                <mxCell id="0"/>
                <mxCell id="1" parent="0"/>
                <mxCell id="ugMZ8tAmapSa5t5XAWcm-1" value="" style="whiteSpace=wrap;html=1;aspect=fixed;fillColor=#4D4D4D;strokeColor=#666666;fontColor=#333333;" parent="1" vertex="1">
                    <mxGeometry x="220" y="90" width="710" height="710" as="geometry"/>
                </mxCell>
                <mxCell id="ugMZ8tAmapSa5t5XAWcm-2" value="Customer" style="shape=umlActor;verticalLabelPosition=bottom;verticalAlign=top;html=1;outlineConnect=0;" parent="1" vertex="1">
                    <mxGeometry x="70" y="350" width="60" height="120" as="geometry"/>
                </mxCell>
                <mxCell id="ugMZ8tAmapSa5t5XAWcm-3" value="Service Provider" style="shape=umlActor;verticalLabelPosition=bottom;verticalAlign=top;html=1;outlineConnect=0;" parent="1" vertex="1">
                    <mxGeometry x="1000" y="330" width="60" height="120" as="geometry"/>
                </mxCell>
                <mxCell id="ugMZ8tAmapSa5t5XAWcm-4" value="High Five Star App" style="text;strokeColor=none;fillColor=none;html=1;fontSize=24;fontStyle=1;verticalAlign=middle;align=center;" parent="1" vertex="1">
                    <mxGeometry x="490" y="30" width="100" height="40" as="geometry"/>
                </mxCell>
                <mxCell id="ugMZ8tAmapSa5t5XAWcm-5" value="Login" style="ellipse;whiteSpace=wrap;html=1;fillColor=#66B2FF;" parent="1" vertex="1">
                    <mxGeometry x="525" y="140" width="120" height="80" as="geometry"/>
                </mxCell>
                <mxCell id="ugMZ8tAmapSa5t5XAWcm-6" value="Authenticate" style="ellipse;whiteSpace=wrap;html=1;fillColor=#66B2FF;" parent="1" vertex="1">
                    <mxGeometry x="540" y="260" width="90" height="50" as="geometry"/>
                </mxCell>
                <mxCell id="ugMZ8tAmapSa5t5XAWcm-7" value="Search for Services&lt;span style=&quot;color: rgba(0 , 0 , 0 , 0) ; font-family: monospace ; font-size: 0px&quot;&gt;%3CmxGraphModel%3E%3Croot%3E%3CmxCell%20id%3D%220%22%2F%3E%3CmxCell%20id%3D%221%22%20parent%3D%220%22%2F%3E%3CmxCell%20id%3D%222%22%20value%3D%22Authenticate%22%20style%3D%22ellipse%3BwhiteSpace%3Dwrap%3Bhtml%3D1%3B%22%20vertex%3D%221%22%20parent%3D%221%22%3E%3CmxGeometry%20x%3D%22525%22%20y%3D%22260%22%20width%3D%2290%22%20height%3D%2250%22%20as%3D%22geometry%22%2F%3E%3C%2FmxCell%3E%3C%2Froot%3E%3C%2FmxGraphModel%3E&lt;/span&gt;" style="ellipse;whiteSpace=wrap;html=1;fillColor=#66B2FF;" parent="1" vertex="1">
                    <mxGeometry x="330" y="240" width="90" height="50" as="geometry"/>
                </mxCell>
                <mxCell id="ugMZ8tAmapSa5t5XAWcm-8" value="Contact Service Provider" style="ellipse;whiteSpace=wrap;html=1;fillColor=#66B2FF;" parent="1" vertex="1">
                    <mxGeometry x="330" y="360" width="90" height="70" as="geometry"/>
                </mxCell>
                <mxCell id="ugMZ8tAmapSa5t5XAWcm-9" value="Negotiate" style="ellipse;whiteSpace=wrap;html=1;fillColor=#66B2FF;" parent="1" vertex="1">
                    <mxGeometry x="555" y="450" width="90" height="50" as="geometry"/>
                </mxCell>
                <mxCell id="ugMZ8tAmapSa5t5XAWcm-10" value="Sign Contract" style="ellipse;whiteSpace=wrap;html=1;fillColor=#66B2FF;" parent="1" vertex="1">
                    <mxGeometry x="560" y="600" width="90" height="50" as="geometry"/>
                </mxCell>
                <mxCell id="ugMZ8tAmapSa5t5XAWcm-11" value="Create Profile" style="ellipse;whiteSpace=wrap;html=1;fillColor=#66B2FF;" parent="1" vertex="1">
                    <mxGeometry x="775" y="230" width="90" height="50" as="geometry"/>
                </mxCell>
                <mxCell id="ugMZ8tAmapSa5t5XAWcm-12" value="Choose Account Tier" style="ellipse;whiteSpace=wrap;html=1;fillColor=#66B2FF;" parent="1" vertex="1">
                    <mxGeometry x="770" y="340" width="100" height="60" as="geometry"/>
                </mxCell>
                <mxCell id="ugMZ8tAmapSa5t5XAWcm-13" value="Submit review of service provider" style="ellipse;whiteSpace=wrap;html=1;fillColor=#66B2FF;" parent="1" vertex="1">
                    <mxGeometry x="320" y="540" width="120" height="80" as="geometry"/>
                </mxCell>
                <mxCell id="ugMZ8tAmapSa5t5XAWcm-14" value="Receive incentive discounts for high usage" style="ellipse;whiteSpace=wrap;html=1;fillColor=#66B2FF;" parent="1" vertex="1">
                    <mxGeometry x="320" y="650" width="120" height="80" as="geometry"/>
                </mxCell>
                <mxCell id="x4YnYtIrZRJGM8KnxDix-1" value="Extends" style="endArrow=block;endSize=16;endFill=0;html=1;rounded=0;exitX=1;exitY=0.5;exitDx=0;exitDy=0;strokeColor=#3399FF;entryX=0;entryY=0.5;entryDx=0;entryDy=0;" parent="1" source="ugMZ8tAmapSa5t5XAWcm-13" target="ugMZ8tAmapSa5t5XAWcm-10" edge="1">
                    <mxGeometry width="160" relative="1" as="geometry">
                        <mxPoint x="440" y="500" as="sourcePoint"/>
                        <mxPoint x="600" y="500" as="targetPoint"/>
                    </mxGeometry>
                </mxCell>
                <mxCell id="x4YnYtIrZRJGM8KnxDix-2" value="Extends" style="endArrow=block;endSize=16;endFill=0;html=1;rounded=0;exitX=0.5;exitY=0;exitDx=0;exitDy=0;strokeColor=#3399FF;" parent="1" source="ugMZ8tAmapSa5t5XAWcm-10" target="ugMZ8tAmapSa5t5XAWcm-9" edge="1">
                    <mxGeometry width="160" relative="1" as="geometry">
                        <mxPoint x="570.0899999999999" y="609.78" as="sourcePoint"/>
                        <mxPoint x="449.2617683204969" y="596.2554088782747" as="targetPoint"/>
                        <mxPoint as="offset"/>
                    </mxGeometry>
                </mxCell>
                <mxCell id="x4YnYtIrZRJGM8KnxDix-4" value="Extends" style="endArrow=block;endSize=16;endFill=0;html=1;rounded=0;strokeColor=#3399FF;exitX=0.5;exitY=0;exitDx=0;exitDy=0;" parent="1" source="ugMZ8tAmapSa5t5XAWcm-8" target="ugMZ8tAmapSa5t5XAWcm-7" edge="1">
                    <mxGeometry width="160" relative="1" as="geometry">
                        <mxPoint x="470" y="440" as="sourcePoint"/>
                        <mxPoint x="630" y="440" as="targetPoint"/>
                        <mxPoint as="offset"/>
                    </mxGeometry>
                </mxCell>
                <mxCell id="x4YnYtIrZRJGM8KnxDix-5" value="Extends" style="endArrow=block;endSize=16;endFill=0;html=1;rounded=0;exitX=0.289;exitY=0.08;exitDx=0;exitDy=0;exitPerimeter=0;strokeColor=#3399FF;" parent="1" source="ugMZ8tAmapSa5t5XAWcm-9" edge="1">
                    <mxGeometry width="160" relative="1" as="geometry">
                        <mxPoint x="540.8299999999999" y="413.52" as="sourcePoint"/>
                        <mxPoint x="420.0017683204969" y="399.9954088782747" as="targetPoint"/>
                    </mxGeometry>
                </mxCell>
                <mxCell id="x4YnYtIrZRJGM8KnxDix-6" value="Receive communication from customer" style="ellipse;whiteSpace=wrap;html=1;fillColor=#66B2FF;" parent="1" vertex="1">
                    <mxGeometry x="772.5" y="440" width="95" height="80" as="geometry"/>
                </mxCell>
                <mxCell id="x4YnYtIrZRJGM8KnxDix-7" value="" style="endArrow=open;endFill=1;endSize=12;html=1;rounded=0;strokeColor=#3399FF;exitX=0.5;exitY=0.5;exitDx=0;exitDy=0;exitPerimeter=0;" parent="1" source="ugMZ8tAmapSa5t5XAWcm-3" target="x4YnYtIrZRJGM8KnxDix-6" edge="1">
                    <mxGeometry width="160" relative="1" as="geometry">
                        <mxPoint x="470" y="430" as="sourcePoint"/>
                        <mxPoint x="630" y="430" as="targetPoint"/>
                    </mxGeometry>
                </mxCell>
                <mxCell id="x4YnYtIrZRJGM8KnxDix-9" value="" style="endArrow=open;endFill=1;endSize=12;html=1;rounded=0;strokeColor=#3399FF;exitX=0.5;exitY=0.583;exitDx=0;exitDy=0;exitPerimeter=0;" parent="1" source="ugMZ8tAmapSa5t5XAWcm-2" target="ugMZ8tAmapSa5t5XAWcm-7" edge="1">
                    <mxGeometry width="160" relative="1" as="geometry">
                        <mxPoint x="470" y="430" as="sourcePoint"/>
                        <mxPoint x="630" y="430" as="targetPoint"/>
                    </mxGeometry>
                </mxCell>
                <mxCell id="x4YnYtIrZRJGM8KnxDix-10" value="" style="endArrow=open;endFill=1;endSize=12;html=1;rounded=0;strokeColor=#3399FF;" parent="1" edge="1">
                    <mxGeometry width="160" relative="1" as="geometry">
                        <mxPoint x="100" y="420" as="sourcePoint"/>
                        <mxPoint x="525" y="179.5" as="targetPoint"/>
                        <Array as="points">
                            <mxPoint x="250" y="190"/>
                        </Array>
                    </mxGeometry>
                </mxCell>
                <mxCell id="x4YnYtIrZRJGM8KnxDix-11" value="" style="endArrow=open;endFill=1;endSize=12;html=1;rounded=0;strokeColor=#3399FF;" parent="1" source="ugMZ8tAmapSa5t5XAWcm-5" target="ugMZ8tAmapSa5t5XAWcm-6" edge="1">
                    <mxGeometry width="160" relative="1" as="geometry">
                        <mxPoint x="500" y="230" as="sourcePoint"/>
                        <mxPoint x="660" y="230" as="targetPoint"/>
                    </mxGeometry>
                </mxCell>
                <mxCell id="x4YnYtIrZRJGM8KnxDix-12" value="" style="endArrow=open;endFill=1;endSize=12;html=1;rounded=0;strokeColor=#3399FF;entryX=0.017;entryY=0.425;entryDx=0;entryDy=0;entryPerimeter=0;" parent="1" target="ugMZ8tAmapSa5t5XAWcm-14" edge="1">
                    <mxGeometry width="160" relative="1" as="geometry">
                        <mxPoint x="100" y="420" as="sourcePoint"/>
                        <mxPoint x="260" y="420" as="targetPoint"/>
                    </mxGeometry>
                </mxCell>
                <mxCell id="x4YnYtIrZRJGM8KnxDix-13" value="" style="endArrow=open;endFill=1;endSize=12;html=1;rounded=0;strokeColor=#3399FF;" parent="1" target="ugMZ8tAmapSa5t5XAWcm-11" edge="1">
                    <mxGeometry width="160" relative="1" as="geometry">
                        <mxPoint x="1030" y="390" as="sourcePoint"/>
                        <mxPoint x="1030" y="310" as="targetPoint"/>
                    </mxGeometry>
                </mxCell>
                <mxCell id="x4YnYtIrZRJGM8KnxDix-14" value="" style="endArrow=open;endFill=1;endSize=12;html=1;rounded=0;strokeColor=#3399FF;entryX=0.5;entryY=0;entryDx=0;entryDy=0;exitX=0.5;exitY=1;exitDx=0;exitDy=0;" parent="1" source="ugMZ8tAmapSa5t5XAWcm-11" target="ugMZ8tAmapSa5t5XAWcm-12" edge="1">
                    <mxGeometry width="160" relative="1" as="geometry">
                        <mxPoint x="710" y="320" as="sourcePoint"/>
                        <mxPoint x="870" y="320" as="targetPoint"/>
                    </mxGeometry>
                </mxCell>
                <mxCell id="x4YnYtIrZRJGM8KnxDix-15" value="Extends" style="endArrow=block;endSize=16;endFill=0;html=1;rounded=0;strokeColor=#3399FF;exitX=1;exitY=0.5;exitDx=0;exitDy=0;" parent="1" source="ugMZ8tAmapSa5t5XAWcm-9" target="x4YnYtIrZRJGM8KnxDix-6" edge="1">
                    <mxGeometry width="160" relative="1" as="geometry">
                        <mxPoint x="660" y="469" as="sourcePoint"/>
                        <mxPoint x="775" y="469" as="targetPoint"/>
                    </mxGeometry>
                </mxCell>
            </root>
        </mxGraphModel>
    </diagram>
</mxfile>